<svg width="36" height="33" viewBox="0 0 36 33" fill="none" xmlns="http://www.w3.org/2000/svg">
<path d="M31.8948 1.38179C33.6036 2.64414 33.8867 3.30291 35 5C35.2611 5.63763 36.0027 7.63613 35.9982 8.34763C35.996 8.97513 35.996 8.97513 35.9938 9.61531C35.988 10.2717 35.988 10.2717 35.9821 10.9414C35.9801 11.3826 35.978 11.8238 35.9759 12.2783C35.9705 13.3697 36.0077 14.928 35.9982 16.0194C35.9888 17.1107 33 17 33 16.0194C33 14.5 32.8616 11.8866 32.7529 10.3176C32.538 7.93774 32.1954 6.55509 30.4559 4.81273C28.8586 3.63379 26.4253 3.297 24.5 3.5C22.8031 4.44634 21.5 5 21.0643 7.80602C20.9605 8.89726 20.9538 8.54827 20.9538 9.58613C20.9538 10.1826 21.0329 10.8118 20.9538 11.3792C20.8705 12.0121 21.0387 12.3385 20.9538 12.9842C21.5065 13.1865 21.4166 13.2448 21.9806 13.4512C23.1545 13.9765 23.1259 14.1516 23.584 15.0855C23.6458 16.222 23.6814 17.3445 23.6932 18.4818C23.6969 18.818 23.7006 19.1543 23.7044 19.5008C23.7107 20.2128 23.7156 20.9248 23.7192 21.6368C23.7271 22.7243 23.7472 23.8112 23.7674 24.8986C23.7721 25.5905 23.776 26.2824 23.7791 26.9743C23.7871 27.2988 23.7951 27.6233 23.8034 27.9576C23.7964 29.5511 23.6946 30.3517 22.7128 31.6193C20.8461 33.0621 19.1822 32.9123 16.9178 32.9242C16.3331 32.9282 16.3331 32.9282 15.7365 32.9322C14.9104 32.9366 14.0844 32.9397 13.2583 32.9415C11.9974 32.946 10.7368 32.9605 9.47592 32.9752C8.6733 32.9783 7.87068 32.9807 7.06805 32.9825C6.69193 32.9883 6.31581 32.9941 5.92829 33C3.80154 32.9916 2.40445 32.8383 0.677499 31.4285C-0.00271201 30.0419 0.125982 28.6199 0.110205 27.0983C0.106507 26.762 0.10281 26.4258 0.0989996 26.0793C0.0926613 25.3673 0.087748 24.6553 0.0841447 23.9433C0.0762566 22.8557 0.0561502 21.7689 0.0359382 20.6815C0.0312988 19.9896 0.0273973 19.2977 0.024306 18.6058C0.016285 18.2813 0.00826404 17.9568 0 17.6225C0.00699451 16.029 0.108716 15.2283 1.09055 13.9608C2.8401 12.6085 4.2423 12.6895 6.36475 12.7052C6.86616 12.7062 6.86616 12.7062 7.37769 12.7072C8.44667 12.7098 9.5156 12.7156 10.5846 12.7216C11.3087 12.7239 12.0329 12.726 12.7571 12.728C14.5336 12.7331 16.31 12.7412 18.0864 12.7508C18.0778 12.2982 18.0692 11.8456 18.0603 11.3792C18.0502 10.4916 18.0502 10.4916 18.0399 9.58613C18.0313 8.99869 18.0226 8.41126 18.0137 7.80602C18.1224 5.42656 18.9513 4.37111 20.5721 2.76438C23.9376 -0.329009 27.9193 -0.879157 31.8948 1.38179ZM3.88441 16.0194C2.87403 17.5641 2.85074 18.0588 2.84646 19.857C2.84528 20.3308 2.8441 20.8045 2.84288 21.2925C2.84642 21.7867 2.84997 22.2809 2.85362 22.79C2.85007 23.2842 2.84653 23.7784 2.84288 24.2875C2.84406 24.7612 2.84524 25.235 2.84646 25.723C2.84749 26.1567 2.84852 26.5904 2.84959 27.0372C2.89519 28.2823 2.89519 28.2823 3.88441 29.5607C5.10835 29.7028 6.22441 29.7569 7.44923 29.7468C7.97788 29.7488 7.97788 29.7488 8.51721 29.7508C9.26278 29.7518 10.0084 29.7492 10.7539 29.7433C11.8973 29.7358 13.04 29.7433 14.1834 29.7522C14.907 29.7513 15.6306 29.7495 16.3541 29.7468C16.6973 29.7496 17.0404 29.7524 17.3939 29.7554C18.4599 29.7569 18.4599 29.7569 19.919 29.5607C20.9293 28.016 20.9526 27.5212 20.9569 25.723C20.9581 25.2493 20.9593 24.7756 20.9605 24.2875C20.9552 23.5463 20.9552 23.5463 20.9497 22.79C20.9533 22.2959 20.9568 21.8017 20.9605 21.2925C20.9587 20.582 20.9587 20.582 20.9569 19.857C20.9559 19.4234 20.9548 18.9897 20.9538 18.5429C20.9082 17.2978 20.9082 17.2978 19.919 16.0194C18.695 15.8773 17.579 15.8232 16.3541 15.8333C15.8255 15.8313 15.8255 15.8313 15.2861 15.8293C14.5406 15.8283 13.795 15.8309 13.0495 15.8367C11.906 15.8442 10.7634 15.8368 9.61998 15.8278C8.8964 15.8288 8.17281 15.8306 7.44923 15.8333C7.1061 15.8305 6.76297 15.8276 6.40944 15.8247C5.3435 15.8232 5.3435 15.8232 3.88441 16.0194Z" fill="#585858"/>
</svg>
