<svg width="24" height="32" viewBox="0 0 24 32" fill="none" xmlns="http://www.w3.org/2000/svg">
<path d="M15.6996 0.542413C18.1788 1.70904 19.385 3.24673 20.5894 5.70783C21.4134 8.03703 21.2418 10.4397 21.1326 12.8767C21.4014 12.9937 21.6703 13.1106 21.9473 13.2311C22.8706 13.749 22.8706 13.749 23.7396 15.0574C23.9284 17.0259 23.9195 18.9986 23.9245 20.975C23.9296 21.946 23.951 22.9157 23.9729 23.8864C23.9771 24.508 23.9802 25.1295 23.9823 25.7511C23.9881 26.3137 23.994 26.8764 24 27.4561C23.7416 29.0012 23.3948 29.9884 22.3085 31.1392C20.773 32.1562 19.0313 32.0014 17.2492 31.9778C16.625 31.9816 16.625 31.9816 15.9882 31.9854C15.1103 31.9872 14.2323 31.9824 13.3544 31.9715C12.012 31.9574 10.672 31.9713 9.3297 31.9881C8.4754 31.9863 7.62111 31.983 6.76682 31.9778C6.36666 31.9831 5.9665 31.9884 5.55422 31.9939C2.90848 31.9358 2.90848 31.9358 1.70857 31.1381C0.166688 29.5002 0.00194815 27.9525 0.00317576 25.7817C0.00212776 25.4808 0.00107976 25.1799 0 24.8699C0.000423253 24.2377 0.00619755 23.6054 0.0170722 22.9732C0.0320173 22.009 0.0260323 21.0465 0.0176026 20.0822C0.0205996 19.4652 0.0248019 18.8482 0.0303322 18.2312C0.0374209 17.3963 0.037421 17.3963 0.0446529 16.5445C0.312101 14.8285 0.787855 14.0817 2.01445 12.8767C2.60702 12.4297 3.31795 12.5143 2.88345 12.8767C2.86329 12.5495 2.84313 12.2223 2.82235 11.8852C2.71114 8.71964 2.87921 6.00163 4.62146 3.28185C7.78252 0.203019 11.3731 -0.708077 15.6996 0.542413ZM6.87544 5.87138C5.64607 8.0146 5.92497 9.93192 5.92497 12.4406C9.93977 12.4406 13.9546 12.4406 18.091 12.4406C18.091 8.7929 17.9766 6.80319 15.484 4.15411C14.1607 3.15794 12.7863 3.09936 11.1509 3.14216C9.31454 3.43338 8.10678 4.55019 6.87544 5.87138ZM3.31795 16.3658C3.18977 17.5371 3.18977 17.5371 3.21782 18.9008C3.21866 19.4056 3.2195 19.9105 3.22036 20.4306C3.22568 20.9602 3.231 21.4898 3.23649 22.0354C3.23677 22.565 3.23705 23.0946 3.23733 23.6403C3.11906 26.1863 3.11906 26.1863 3.75246 28.5774C9.20112 28.5774 14.6498 28.5774 20.2636 28.5774C21.2083 26.6809 20.7784 24.1186 20.7795 22.0354C20.7875 21.2411 20.7875 21.2411 20.7956 20.4306C20.7965 19.9258 20.7973 19.4209 20.7982 18.9008C20.8 18.4358 20.8018 17.9709 20.8036 17.4919C20.8117 16.2944 20.8117 16.2944 19.8291 15.4935C18.6553 15.4064 17.5271 15.3715 16.353 15.3776C15.8372 15.3764 15.8372 15.3764 15.3109 15.3751C14.5833 15.3745 13.8558 15.3761 13.1282 15.3798C12.0124 15.3844 10.897 15.3798 9.78118 15.3742C9.07511 15.3748 8.36905 15.3759 7.66298 15.3776C7.16057 15.375 7.16057 15.375 6.64801 15.3723C4.78167 15.3206 4.78167 15.3206 3.31795 16.3658Z" fill="#585858"/>
</svg>
